<?xml version="1.0" encoding="UTF-8" standalone="no"?>
<!-- Created with Inkscape (http://www.inkscape.org/) -->

<svg
   width="50.580139mm"
   height="17.064476mm"
   viewBox="0 0 50.580139 17.064476"
   version="1.1"
   id="svg1"
   xml:space="preserve"
   xmlns="http://www.w3.org/2000/svg"
   xmlns:svg="http://www.w3.org/2000/svg"><defs
     id="defs1" /><g
     id="layer1"
     transform="translate(-52.436756,-133.59686)"><g
       id="g1"
       transform="matrix(0.94802652,0,0,0.94802652,69.194562,133.59686)"
       style="fill:#deaa87"><path
         fill="#494c4e"
         d="M 10.05,3.66 A 1.114,1.114 0 0 1 10,3.35 1,1 0 0 1 10.7,2.4 l 1.95,-0.62 a 0.992,0.992 0 0 1 1.25,0.65 l 3.08,9.64 a 1,1 0 0 1 -0.65,1.26 l -1.95,0.62 A 1.047,1.047 0 0 1 14.08,14 1,1 0 0 1 13.13,13.3 Z"
         id="path1"
         style="fill:#deaa87" /><path
         fill="#494c4e"
         d="M 17,14 H 9 a 1,1 0 0 0 1,-1 V 3 A 1,1 0 0 0 9,2 H 7 A 1,1 0 0 0 6,3 V 1 A 1,1 0 0 0 5,0 H 2 A 1,1 0 0 0 1,1 v 12 a 1,1 0 0 0 1,1 H 1 a 1,1 0 0 0 0,2 v 1 a 1,1 0 0 0 2,0 v -1 h 12 v 1 a 1,1 0 0 0 2,0 v -1 a 1,1 0 0 0 0,-2 z"
         id="path2"
         style="fill:#deaa87" /></g><path
       style="-inkscape-font-specification:'Gabriola, Normal';opacity:0.982709"
       d="m 268.47656,516.89647 q 0,0.38282 -0.0182,0.98438 -0.0182,0.59245 -0.0456,1.45833 -0.0274,0.86589 -0.0638,2.02344 -0.0365,1.14843 -0.0729,2.63411 1.3125,-0.0456 2.52473,-0.0729 1.21224,-0.0365 2.38802,-0.0547 1.1849,-0.0273 2.36979,-0.0364 1.1849,-0.0182 2.44271,-0.0273 0.0273,-0.92968 0.0547,-1.85937 0.0365,-0.92969 0.082,-1.95963 0.0456,-1.02995 0.10937,-2.21485 0.0729,-1.18489 0.17318,-2.62499 0.009,-0.20052 0.11849,-0.33724 0.11849,-0.14584 0.29167,-0.23698 0.18229,-0.10026 0.40104,-0.14584 0.21875,-0.0456 0.4375,-0.0456 0.26432,0 0.5651,0.0729 0.3099,0.0638 0.60156,0.1914 -0.13672,1.49479 -0.24609,2.86198 -0.10026,1.36719 -0.17318,2.66146 -0.0729,1.29427 -0.1276,2.56119 -0.0547,1.25781 -0.082,2.54297 -0.0274,1.28515 -0.0456,2.625 -0.009,1.33984 -0.009,2.79817 0,0.96615 0.082,1.64974 0.082,0.68359 0.28255,1.12109 0.20964,0.42839 0.55599,0.62891 0.34635,0.20052 0.86589,0.20052 0.37369,0 0.77473,-0.0547 0.40105,-0.0638 0.99349,-0.28255 l 0.25521,0.7474 q -0.65625,0.28255 -1.22135,0.49218 -0.56511,0.20964 -1.05729,0.34636 -0.48307,0.13671 -0.90235,0.20052 -0.41927,0.0729 -0.80208,0.0729 -0.51953,0 -0.91146,-0.20052 -0.39192,-0.1914 -0.65625,-0.63802 -0.2552,-0.44661 -0.38281,-1.17578 -0.1276,-0.72916 -0.1276,-1.80468 v -2.06901 q 0,-0.72005 0,-1.36719 0.009,-0.65625 0.0182,-1.26692 0.009,-0.61068 0.0182,-1.1849 0.009,-0.57422 0.0273,-1.13932 -1.25781,0 -2.44271,0.009 -1.17578,0.009 -2.36067,0.0365 -1.17578,0.0273 -2.39713,0.0729 -1.21224,0.0456 -2.52474,0.10937 l -0.3099,10.20833 -2.16015,0.27343 -0.16406,-0.0182 q 0.10937,-2.61589 0.1914,-4.96745 0.0911,-2.36067 0.15495,-4.58463 0.0638,-2.22396 0.0912,-4.38411 0.0365,-2.16015 0.0365,-4.38411 0,-0.42839 -0.0638,-0.72917 -0.0547,-0.30989 -0.21875,-0.5013 -0.16406,-0.19141 -0.45573,-0.27344 -0.28255,-0.0911 -0.72916,-0.0911 -0.60156,0 -1.54037,0.13672 l -0.0911,-0.75651 q 1.32161,-0.33724 2.24218,-0.5013 0.92058,-0.17318 1.54037,-0.17318 0.61067,0 0.95703,0.16406 0.34635,0.15495 0.51041,0.47396 0.17318,0.30989 0.20964,0.76562 0.0365,0.45573 0.0365,1.03906 z m 23.60675,9.14192 q 0,-0.72005 -0.23698,-1.24869 -0.23698,-0.52865 -0.61979,-0.86589 -0.38281,-0.33724 -0.86589,-0.5013 -0.48307,-0.16406 -0.96614,-0.16406 -0.64714,0 -1.09375,0.13672 -0.44661,0.13672 -0.72917,0.37369 -0.27343,0.23698 -0.40104,0.56511 -0.11849,0.31901 -0.11849,0.69271 0,0.4375 0.15495,0.88411 0.16406,0.4375 0.47396,0.85677 l -0.0365,0.10026 q -0.51953,0.25521 -1.04818,0.25521 -0.30989,0 -0.58333,-0.0911 -0.26432,-0.10026 -0.46484,-0.28255 -0.19141,-0.18229 -0.3099,-0.44661 -0.10937,-0.26433 -0.10937,-0.59245 0,-0.53776 0.25521,-1.01172 0.26432,-0.47396 0.6927,-0.86588 0.42839,-0.39193 0.99349,-0.70183 0.56511,-0.30989 1.16667,-0.51953 0.60156,-0.21875 1.20312,-0.32812 0.61068,-0.11849 1.13021,-0.11849 0.95703,0 1.63151,0.25521 0.68359,0.25521 1.10286,0.74739 0.42839,0.48307 0.61979,1.17578 0.20052,0.69271 0.20052,1.56771 0,0.60156 -0.0547,1.32161 -0.0456,0.72005 -0.10938,1.51302 -0.0638,0.78386 -0.11849,1.6224 -0.0456,0.83854 -0.0456,1.66796 0,1.3125 0.48307,1.97787 0.49219,0.65625 1.28516,0.65625 0.70182,0 1.5677,-0.51953 l 0.26433,0.39192 q -0.61068,0.61068 -1.33073,0.92969 -0.72005,0.31901 -1.51302,0.31901 -0.59245,0 -1.09375,-0.20052 -0.5013,-0.20052 -0.86589,-0.59245 -0.36458,-0.40104 -0.5651,-1.0026 -0.20052,-0.60156 -0.20052,-1.39453 0,-0.23698 0.009,-0.47396 0.0182,-0.23698 0.0638,-0.5013 h -0.0547 q -0.39193,0.78385 -0.91146,1.54948 -0.51041,0.75651 -1.13021,1.35807 -0.61067,0.59245 -1.31249,0.95703 -0.69271,0.3737 -1.45834,0.3737 -0.6289,0 -1.14843,-0.21875 -0.51953,-0.21875 -0.89323,-0.60157 -0.36458,-0.38281 -0.57422,-0.90234 -0.20052,-0.52864 -0.20052,-1.14844 0,-0.80208 0.29167,-1.45833 0.30078,-0.65625 0.82031,-1.17578 0.52864,-0.51953 1.25781,-0.89323 0.72917,-0.38281 1.58594,-0.6289 0.85677,-0.25521 1.8138,-0.3737 0.95703,-0.1276 1.95051,-0.1276 0.0638,-0.57422 0.10027,-1.11198 0.0456,-0.53776 0.0456,-1.1849 z m -5.59635,6.26172 q 0,0.35547 0.0729,0.68359 0.082,0.31901 0.24609,0.5651 0.17318,0.2461 0.42838,0.39193 0.26433,0.13672 0.62891,0.13672 0.41016,0 0.84766,-0.19141 0.43749,-0.1914 0.85677,-0.52864 0.42838,-0.33724 0.81119,-0.80208 0.39193,-0.47396 0.70182,-1.02995 0.3099,-0.55599 0.51042,-1.16667 0.20964,-0.61979 0.27344,-1.26692 -0.67448,0.0182 -1.33984,0.0911 -0.66537,0.0638 -1.26693,0.20964 -0.59245,0.14583 -1.10286,0.38281 -0.51042,0.23698 -0.88412,0.59245 -0.36458,0.34635 -0.57422,0.82942 -0.20963,0.47396 -0.20963,1.10287 z m 14.08202,3.42708 q -0.11849,-0.875 -0.28255,-1.83203 -0.16407,-0.96615 -0.35547,-1.94141 -0.18229,-0.98437 -0.39193,-1.9414 -0.20052,-0.95703 -0.41015,-1.82292 -0.20052,-0.86588 -0.39193,-1.59505 -0.19141,-0.72916 -0.35547,-1.25781 -0.17318,-0.53776 -0.32812,-0.875 -0.15495,-0.34635 -0.32813,-0.53776 -0.16406,-0.20052 -0.36458,-0.27344 -0.20052,-0.0729 -0.45573,-0.0729 -0.29167,0 -0.62891,0.0638 -0.32812,0.0638 -0.79296,0.17318 l -0.13672,-0.65625 q 0.54687,-0.20052 1.0664,-0.36459 0.52865,-0.17317 0.97526,-0.29166 0.44662,-0.11849 0.79297,-0.18229 0.34635,-0.0638 0.54687,-0.0638 0.2461,0 0.44662,0.0911 0.20963,0.082 0.40104,0.29167 0.19141,0.20963 0.36458,0.57422 0.17318,0.35546 0.34636,0.90234 0.11849,0.36458 0.27343,0.94791 0.16407,0.57422 0.33724,1.3125 0.17318,0.73828 0.35547,1.60417 0.19141,0.85677 0.36458,1.77734 0.17318,0.92057 0.31902,1.8776 0.15494,0.94792 0.26432,1.86849 0.45573,-0.66536 0.91146,-1.3763 0.46484,-0.71094 0.88411,-1.4401 0.42838,-0.72917 0.79297,-1.46745 0.36458,-0.74739 0.63802,-1.47656 0.27343,-0.72917 0.42838,-1.43099 0.15495,-0.70182 0.15495,-1.35807 0,-0.82031 -0.29167,-1.54036 -0.28255,-0.72006 -0.97526,-1.26693 l 0.10026,-0.21875 q 0.16407,-0.0182 0.31901,-0.0273 0.15495,-0.009 0.30079,-0.009 1.22135,0 1.84114,0.57422 0.61979,0.57422 0.61979,1.59505 0,0.77474 -0.32812,1.76823 -0.32813,0.98437 -0.86589,2.06901 -0.53776,1.08463 -1.22135,2.21484 -0.68359,1.12109 -1.39453,2.16927 -0.71094,1.04817 -1.38542,1.96875 -0.67448,0.91145 -1.19401,1.57682 z m 17.87368,-3.14453 q 0.0547,0.0273 0.13672,0.082 0.0911,0.0456 0.16406,0.10938 0.0729,0.0547 0.12761,0.1276 0.0547,0.0638 0.0547,0.1276 0,0.0365 -0.0273,0.0729 -0.51042,0.71094 -1.10286,1.23958 -0.58334,0.51953 -1.22136,0.875 -0.6289,0.34636 -1.28515,0.51042 -0.65625,0.17317 -1.29427,0.17317 -1.09375,0 -2.00521,-0.44661 -0.91146,-0.44661 -1.56771,-1.22135 -0.65625,-0.77474 -1.02994,-1.8138 -0.36459,-1.04818 -0.36459,-2.24219 0,-0.97526 0.20964,-1.95052 0.21875,-0.97526 0.61979,-1.85937 0.41016,-0.88412 0.99349,-1.64063 0.58333,-0.76562 1.32161,-1.32161 0.7474,-0.5651 1.63151,-0.88411 0.89323,-0.31901 1.91406,-0.31901 0.67448,0 1.28516,0.18229 0.61067,0.18229 1.0664,0.52864 0.46485,0.33724 0.73828,0.83855 0.27344,0.5013 0.27344,1.13932 0,0.92968 -0.61068,1.62239 -0.60156,0.69271 -1.66796,1.17578 -1.06641,0.48307 -2.51563,0.78386 -1.4401,0.29166 -3.11718,0.4375 v 0.15494 q 0,1.16667 0.29167,2.13281 0.30078,0.96615 0.82031,1.65886 0.51953,0.68359 1.22135,1.0664 0.70182,0.38281 1.51302,0.38281 0.82031,0 1.67708,-0.40104 0.86589,-0.41015 1.75,-1.32161 z m -1.71354,-7.31901 q 0,-0.41927 -0.14583,-0.78385 -0.13672,-0.36458 -0.39193,-0.6289 -0.24609,-0.27344 -0.59245,-0.42839 -0.34635,-0.15495 -0.74739,-0.15495 -0.59245,0 -1.07552,0.20964 -0.48308,0.20963 -0.86589,0.57422 -0.38281,0.35546 -0.67448,0.83854 -0.29166,0.47396 -0.5013,1.01172 -0.20052,0.53776 -0.32812,1.10286 -0.12761,0.5651 -0.18229,1.10286 1.29427,-0.0911 2.3151,-0.30989 1.02995,-0.22787 1.73177,-0.57422 0.71093,-0.35547 1.08463,-0.83854 0.3737,-0.49219 0.3737,-1.1211 z m 5.68749,-0.33723 q 0,-0.3737 -0.0547,-0.62891 -0.0547,-0.25521 -0.17318,-0.40104 -0.10937,-0.15495 -0.28255,-0.21875 -0.17318,-0.0638 -0.41016,-0.0638 -0.32812,0 -0.78385,0.0911 -0.45573,0.0911 -1.03906,0.2461 l -0.13672,-0.65625 q 0.64713,-0.22787 1.23958,-0.41016 0.60156,-0.19141 1.10286,-0.32812 0.50131,-0.13672 0.88412,-0.20964 0.38281,-0.0729 0.60156,-0.0729 0.52865,0 0.82031,0.31901 0.30078,0.3099 0.30078,1.07552 0,0.0912 -0.0182,0.42839 -0.0182,0.32812 -0.0547,0.83854 -0.0274,0.51042 -0.0729,1.17578 -0.0456,0.65625 -0.10937,1.40364 -0.0547,0.7474 -0.12761,1.54948 -0.0729,0.79297 -0.15495,1.58594 l 0.0547,0.009 q 0.69271,-2.35156 1.48568,-3.96484 0.79296,-1.62239 1.61328,-2.62499 0.82031,-1.01172 1.63151,-1.45834 0.81119,-0.44661 1.54947,-0.44661 0.51042,0 0.98438,0.19141 0.47396,0.1914 0.83854,0.61067 0.3737,0.41927 0.59245,1.08464 0.21875,0.65625 0.21875,1.59505 0,0.27343 -0.0365,0.73828 -0.0274,0.45573 -0.0729,1.02083 -0.0456,0.5651 -0.10937,1.20312 -0.0547,0.62891 -0.10026,1.23959 -0.0456,0.61067 -0.082,1.16666 -0.0273,0.54688 -0.0273,0.95703 0,0.71094 0.0547,1.15755 0.0638,0.44662 0.20052,0.71094 0.13672,0.25521 0.36458,0.35547 0.22787,0.0911 0.55599,0.0911 0.47396,0 0.98438,-0.1276 0.51041,-0.13672 1.02994,-0.3737 l 0.17318,0.47396 q -0.32813,0.26432 -0.82943,0.53776 -0.5013,0.27344 -1.05729,0.5013 -0.54687,0.22787 -1.09375,0.36459 -0.54687,0.14583 -0.96614,0.14583 -0.49219,0 -0.77474,-0.26432 -0.28255,-0.26433 -0.42839,-0.72006 -0.13671,-0.45572 -0.18229,-1.0664 -0.0365,-0.61068 -0.0365,-1.3125 0,-0.85677 0.0547,-1.75911 0.0638,-0.91146 0.13672,-1.73177 0.0729,-0.82031 0.1276,-1.48568 0.0638,-0.67448 0.0638,-1.07552 0,-1.0664 -0.40105,-1.5677 -0.40104,-0.51042 -1.0664,-0.51042 -0.52865,0 -1.11198,0.44661 -0.58333,0.44662 -1.16666,1.23047 -0.57422,0.77474 -1.11198,1.84115 -0.52865,1.05729 -0.95703,2.29687 -0.42839,1.23047 -0.71094,2.57942 -0.28255,1.34896 -0.35547,2.69792 l -1.90494,0.23698 -0.14584,-0.009 q 0.0729,-0.86588 0.13672,-1.88672 0.0638,-1.02083 0.11849,-2.069 0.0547,-1.05729 0.0911,-2.08724 0.0456,-1.03906 0.0729,-1.93229 0.0365,-0.90234 0.0456,-1.61328 0.0182,-0.71094 0.0182,-1.12109 z m 24.79165,9.34244 q 0.68359,0.17317 1.30338,0.23697 0.6198,0.0638 1.2487,0.0638 1.13021,0 2.11458,-0.27344 0.98438,-0.28255 1.70443,-0.875 0.72916,-0.60156 1.13932,-1.53125 0.41927,-0.9388 0.41927,-2.24218 0,-1.21224 -0.41927,-2.1237 -0.41927,-0.92057 -1.22135,-1.53125 -0.79297,-0.61068 -1.95964,-0.91146 -1.16666,-0.30989 -2.66145,-0.30989 -0.29167,0 -0.60156,0.0182 -0.30079,0.009 -0.61068,0.0273 -0.0182,0.55599 -0.0456,1.30338 -0.0274,0.73829 -0.0638,1.58594 -0.0365,0.84766 -0.082,1.75 -0.0365,0.90234 -0.082,1.76823 -0.0456,0.86588 -0.0911,1.64974 -0.0456,0.78385 -0.0912,1.39453 z m 0.68359,-18.83072 q -0.009,0.59245 -0.0273,1.45833 -0.0182,0.85677 -0.0456,1.93229 -0.0274,1.06641 -0.0638,2.32422 -0.0273,1.25781 -0.0638,2.65234 0.79297,-0.0182 1.56771,-0.1276 0.78385,-0.11849 1.48568,-0.34636 0.71093,-0.22786 1.31249,-0.59244 0.60157,-0.3737 1.03907,-0.89323 0.44661,-0.51953 0.6927,-1.21224 0.25521,-0.70182 0.25521,-1.59505 0,-1.04818 -0.33724,-1.76823 -0.33724,-0.72005 -0.92968,-1.15755 -0.58334,-0.4375 -1.3763,-0.6289 -0.78386,-0.19141 -1.6862,-0.19141 -0.4375,0 -0.90234,0.0365 -0.45573,0.0365 -0.92058,0.10937 z m -2.3789,1.85938 q 0,-0.38282 -0.0638,-0.65625 -0.0638,-0.27344 -0.22787,-0.44662 -0.15494,-0.17317 -0.4375,-0.25521 -0.28255,-0.082 -0.72005,-0.082 -0.60156,0 -1.54036,0.13672 l -0.0912,-0.8112 q 0.82943,-0.15494 1.80469,-0.31901 0.97526,-0.16406 2.00521,-0.30078 1.03906,-0.13672 2.07812,-0.21875 1.04817,-0.0911 2.02343,-0.0911 0.79297,0 1.5586,0.082 0.76562,0.082 1.44921,0.27344 0.6836,0.18229 1.25782,0.5013 0.57421,0.30989 0.99348,0.77474 0.41927,0.46484 0.65625,1.10286 0.23698,0.62891 0.23698,1.44922 0,1.17578 -0.42838,2.09635 -0.41927,0.91146 -1.13932,1.59505 -0.72006,0.67448 -1.65886,1.13932 -0.9388,0.45573 -1.97786,0.72917 v 0.082 q 1.36719,0.10026 2.52474,0.45573 1.15755,0.35547 2.0052,1.01172 0.84766,0.65625 1.32162,1.62239 0.48307,0.96615 0.48307,2.28776 0,1.11198 -0.3099,2.00521 -0.30078,0.89322 -0.83854,1.58593 -0.53776,0.69271 -1.27604,1.1849 -0.72916,0.49218 -1.58593,0.81119 -0.85677,0.31901 -1.80469,0.46485 -0.94791,0.15495 -1.91406,0.15495 -0.80208,0 -1.54036,-0.0912 -0.72917,-0.0911 -1.5586,-0.22786 l -1.76822,0.20963 -0.16407,-0.0182 q 0.11849,-1.20312 0.20964,-2.59765 0.10026,-1.39453 0.16406,-2.91667 0.0729,-1.52213 0.12761,-3.1263 0.0547,-1.60416 0.082,-3.22656 0.0365,-1.6315 0.0456,-3.23567 0.0182,-1.61328 0.0182,-3.13541 z m 14.06379,12.86978 q 0,-0.92058 0.1914,-1.86849 0.19141,-0.94792 0.56511,-1.83203 0.37369,-0.89323 0.92057,-1.66797 0.55599,-0.78385 1.27604,-1.36718 0.72005,-0.58334 1.60416,-0.92058 0.88412,-0.33724 1.92318,-0.33724 1.16666,0 2.05989,0.49219 0.90235,0.49219 1.51302,1.30339 0.61068,0.80208 0.92057,1.83202 0.31901,1.02995 0.31901,2.10547 0,0.92057 -0.1914,1.86849 -0.19141,0.94792 -0.57422,1.84114 -0.3737,0.88412 -0.92969,1.66797 -0.54687,0.77474 -1.26692,1.35807 -0.72005,0.58334 -1.60417,0.92058 -0.88411,0.33723 -1.92317,0.33723 -1.16667,0 -2.06901,-0.49218 -0.89323,-0.49219 -1.50391,-1.29427 -0.60156,-0.8112 -0.92057,-1.84115 -0.30989,-1.02994 -0.30989,-2.10546 z m 2.17838,-0.86589 q 0,0.61979 0.0911,1.25781 0.10027,0.63802 0.30079,1.23047 0.20052,0.59245 0.49218,1.11198 0.30078,0.51042 0.70183,0.89323 0.41015,0.38281 0.91145,0.60156 0.51042,0.21875 1.1211,0.21875 0.66536,0 1.16666,-0.28255 0.51042,-0.29167 0.875,-0.76563 0.3737,-0.47395 0.61068,-1.08463 0.24609,-0.61068 0.39192,-1.25781 0.14584,-0.65625 0.20052,-1.29427 0.0638,-0.63802 0.0638,-1.17578 0,-0.62891 -0.10026,-1.25781 -0.0911,-0.63802 -0.29167,-1.22136 -0.20052,-0.59244 -0.5013,-1.10286 -0.29167,-0.51953 -0.70182,-0.89323 -0.40105,-0.38281 -0.91146,-0.60156 -0.5013,-0.21875 -1.11198,-0.21875 -0.66536,0 -1.17578,0.28255 -0.5013,0.28255 -0.875,0.75651 -0.36458,0.47396 -0.61068,1.08463 -0.23697,0.61068 -0.38281,1.25782 -0.14583,0.64713 -0.20963,1.29427 -0.0547,0.63802 -0.0547,1.16666 z m 11.08333,0.86589 q 0,-0.92058 0.1914,-1.86849 0.19141,-0.94792 0.56511,-1.83203 0.37369,-0.89323 0.92057,-1.66797 0.55599,-0.78385 1.27604,-1.36718 0.72005,-0.58334 1.60416,-0.92058 0.88412,-0.33724 1.92318,-0.33724 1.16667,0 2.05989,0.49219 0.90235,0.49219 1.51302,1.30339 0.61068,0.80208 0.92058,1.83202 0.31901,1.02995 0.31901,2.10547 0,0.92057 -0.19141,1.86849 -0.19141,0.94792 -0.57422,1.84114 -0.3737,0.88412 -0.92969,1.66797 -0.54687,0.77474 -1.26692,1.35807 -0.72005,0.58334 -1.60417,0.92058 -0.88411,0.33723 -1.92317,0.33723 -1.16667,0 -2.06901,-0.49218 -0.89323,-0.49219 -1.50391,-1.29427 -0.60156,-0.8112 -0.92057,-1.84115 -0.30989,-1.02994 -0.30989,-2.10546 z m 2.17838,-0.86589 q 0,0.61979 0.0911,1.25781 0.10026,0.63802 0.30078,1.23047 0.20052,0.59245 0.49218,1.11198 0.30079,0.51042 0.70183,0.89323 0.41015,0.38281 0.91145,0.60156 0.51042,0.21875 1.1211,0.21875 0.66536,0 1.16666,-0.28255 0.51042,-0.29167 0.875,-0.76563 0.3737,-0.47395 0.61068,-1.08463 0.24609,-0.61068 0.39192,-1.25781 0.14584,-0.65625 0.20053,-1.29427 0.0638,-0.63802 0.0638,-1.17578 0,-0.62891 -0.10026,-1.25781 -0.0912,-0.63802 -0.29167,-1.22136 -0.20052,-0.59244 -0.5013,-1.10286 -0.29167,-0.51953 -0.70182,-0.89323 -0.40104,-0.38281 -0.91146,-0.60156 -0.5013,-0.21875 -1.11198,-0.21875 -0.66536,0 -1.17578,0.28255 -0.5013,0.28255 -0.875,0.75651 -0.36458,0.47396 -0.61067,1.08463 -0.23698,0.61068 -0.38282,1.25782 -0.14583,0.64713 -0.20963,1.29427 -0.0547,0.63802 -0.0547,1.16666 z m 16.25128,0.23698 q 1.09375,-0.36458 1.9961,-0.82943 0.90234,-0.46484 1.54947,-0.99348 0.65625,-0.52865 1.01172,-1.11198 0.35547,-0.58334 0.35547,-1.19401 0,-0.25521 -0.10026,-0.46485 -0.0911,-0.21875 -0.25521,-0.36458 -0.15495,-0.15495 -0.3737,-0.23698 -0.20963,-0.082 -0.45572,-0.082 -0.57422,0 -1.19401,0.35547 -0.61068,0.35547 -1.22136,1.02995 -0.60156,0.67448 -1.17578,1.64974 -0.57422,0.97525 -1.0664,2.21484 -0.49219,1.23958 -0.88412,2.72526 -0.39192,1.48567 -0.6289,3.17187 l -1.84115,0.23698 -0.14583,-0.009 q 0.0547,-1.07552 0.11849,-2.36979 0.0729,-1.30338 0.14583,-2.76171 0.082,-1.45834 0.16407,-3.03516 0.0911,-1.58593 0.17317,-3.22656 0.0911,-1.64062 0.18229,-3.30859 0.0912,-1.66797 0.17318,-3.29036 0.0912,-1.63151 0.17318,-3.1901 0.082,-1.55859 0.15495,-2.98047 0.009,-0.21875 0.1276,-0.3737 0.11849,-0.16406 0.30078,-0.2552 0.19141,-0.10026 0.42839,-0.14584 0.23698,-0.0456 0.49218,-0.0456 0.54688,0 1.14844,0.29167 -0.20964,1.86848 -0.3737,3.42708 -0.16406,1.55859 -0.30078,2.89843 -0.1276,1.33073 -0.23698,2.4974 -0.10937,1.15755 -0.20052,2.22395 -0.082,1.05729 -0.16406,2.07813 -0.0729,1.01171 -0.14583,2.05989 -0.0729,1.04818 -0.15495,2.16927 -0.0729,1.12109 -0.16406,2.40625 l 0.0547,0.009 q 0.32813,-1.08463 0.77474,-2.14192 0.44662,-1.0573 0.98438,-2.00521 0.53776,-0.95703 1.15755,-1.75911 0.61979,-0.8112 1.29427,-1.39453 0.67448,-0.58334 1.39453,-0.91146 0.72005,-0.33724 1.45833,-0.33724 0.46484,0 0.85677,0.15495 0.39193,0.14583 0.67448,0.42838 0.29166,0.27344 0.44661,0.66537 0.16406,0.39192 0.16406,0.875 0,0.7565 -0.32812,1.46744 -0.32812,0.71094 -0.92969,1.36719 -0.60156,0.65625 -1.44921,1.2487 -0.83855,0.58333 -1.86849,1.08463 0.61067,1.12109 1.09375,1.92318 0.49218,0.79296 0.88411,1.33984 0.40104,0.53776 0.72005,0.85677 0.31901,0.31901 0.58333,0.48307 0.27344,0.16406 0.51042,0.21875 0.23698,0.0456 0.47396,0.0456 0.47396,0 0.98437,-0.14583 0.51042,-0.14583 1.02995,-0.38281 l 0.17318,0.47396 q -0.32813,0.26432 -0.82943,0.53776 -0.5013,0.27343 -1.0664,0.5013 -0.55599,0.22786 -1.11198,0.36458 -0.54688,0.14583 -0.96615,0.14583 -0.49218,0 -0.98437,-0.36458 -0.48307,-0.35547 -1.04818,-1.11198 -0.55599,-0.75651 -1.23047,-1.91406 -0.67447,-1.16666 -1.54947,-2.77994 z m 10.7552,2.57943 q 0.0638,0.6927 0.36459,1.19401 0.30989,0.5013 0.75651,0.82031 0.44661,0.31901 0.98437,0.47395 0.54687,0.15495 1.08463,0.15495 0.50131,0 0.96615,-0.13672 0.46484,-0.13671 0.82031,-0.39192 0.35547,-0.25521 0.56511,-0.62891 0.21875,-0.3737 0.21875,-0.83854 0,-0.48307 -0.22787,-0.84766 -0.22786,-0.36458 -0.61068,-0.66536 -0.38281,-0.30078 -0.89322,-0.55599 -0.50131,-0.25521 -1.04818,-0.51953 -0.48307,-0.22786 -0.97526,-0.45573 -0.48307,-0.23698 -0.9388,-0.51041 -0.45573,-0.27344 -0.85677,-0.59245 -0.39193,-0.31901 -0.69271,-0.70182 -0.29167,-0.39193 -0.46484,-0.86589 -0.16406,-0.48307 -0.16406,-1.0664 0,-0.62891 0.21874,-1.15755 0.21875,-0.52865 0.59245,-0.94792 0.38281,-0.42839 0.875,-0.7474 0.5013,-0.31901 1.06641,-0.52864 0.5651,-0.21875 1.15755,-0.31901 0.60156,-0.10938 1.16666,-0.10938 0.72917,0 1.3763,0.16407 0.65625,0.15494 1.13933,0.46484 0.49218,0.30078 0.77474,0.73828 0.29166,0.4375 0.29166,0.98437 0,0.20964 -0.0729,0.45573 -0.0729,0.2461 -0.2461,0.46485 -0.17318,0.20963 -0.45573,0.35546 -0.28255,0.14584 -0.6927,0.15495 -0.38282,0 -0.80209,-0.11849 l -0.0273,-0.0911 q 0.1276,-0.29167 0.18229,-0.53776 0.0547,-0.2461 0.0547,-0.45573 -0.009,-0.41927 -0.21875,-0.70182 -0.20052,-0.29167 -0.51042,-0.47396 -0.30989,-0.18229 -0.69271,-0.26432 -0.37369,-0.082 -0.73828,-0.082 -0.64713,0 -1.15755,0.17318 -0.51041,0.17318 -0.86588,0.46484 -0.34636,0.28256 -0.53776,0.64714 -0.18229,0.36458 -0.18229,0.75651 0,0.5013 0.26432,0.90234 0.26432,0.39193 0.70182,0.72917 0.4375,0.32812 1.0026,0.61979 0.57422,0.29167 1.19401,0.58333 0.69271,0.32813 1.3763,0.6836 0.6836,0.34635 1.22136,0.79296 0.53776,0.44662 0.86588,1.02995 0.33724,0.57422 0.33724,1.35807 0,0.9388 -0.41927,1.66797 -0.41015,0.72917 -1.10286,1.23047 -0.69271,0.5013 -1.59505,0.75651 -0.89323,0.26432 -1.85938,0.26432 -0.48307,0 -1.0026,-0.0729 -0.51042,-0.0729 -0.99349,-0.21875 -0.48307,-0.14583 -0.92057,-0.35546 -0.42839,-0.21875 -0.75651,-0.49219 -0.31901,-0.28255 -0.51042,-0.61979 -0.18229,-0.34636 -0.18229,-0.75651 0,-0.35547 0.14584,-0.60156 0.15494,-0.2461 0.40104,-0.40105 0.24609,-0.15494 0.54687,-0.22786 0.3099,-0.082 0.62891,-0.0912 z m 14.17317,-16.41535 q -0.38281,1.73176 -0.64713,3.58202 -0.25521,1.84115 -0.4375,3.63672 0.42838,0.0182 0.82942,0.0273 0.41016,0.009 0.75651,0.0182 0.35547,0.009 0.63802,0.009 0.29167,0 0.48308,0 0.82942,0 1.35807,-0.10026 0.0456,0.15494 0.0729,0.28255 0.0273,0.1276 0.0273,0.23698 0,0.40104 -0.33724,0.51953 -0.32813,0.11849 -0.95703,0.11849 -0.60156,0 -1.34896,-0.0729 -0.73828,-0.0729 -1.62239,-0.13672 -0.10026,0.97526 -0.17318,1.90495 -0.0638,0.92057 -0.10937,1.74088 -0.0365,0.82031 -0.0547,1.52214 -0.0182,0.70182 -0.0182,1.22135 0,0.97526 0.10026,1.74088 0.10026,0.76563 0.35547,1.30339 0.25521,0.52864 0.70182,0.81119 0.44661,0.28256 1.13021,0.28256 0.49218,0 1.09375,-0.17318 0.61067,-0.17318 1.38541,-0.55599 0.2461,0.24609 0.28255,0.60156 -0.5651,0.3737 -1.13932,0.6836 -0.57422,0.30078 -1.13021,0.51953 -0.55598,0.21875 -1.07552,0.33724 -0.51953,0.11849 -0.98437,0.11849 -0.61068,0 -1.12109,-0.22787 -0.5013,-0.21875 -0.875,-0.78385 -0.36458,-0.57422 -0.57422,-1.54037 -0.20052,-0.96614 -0.20052,-2.4427 0,-0.82943 0.0273,-1.70443 0.0274,-0.88411 0.0729,-1.78645 0.0456,-0.90235 0.11849,-1.80469 0.0729,-0.90234 0.16406,-1.77734 -0.72005,0.009 -1.33984,0.0638 -0.61068,0.0456 -1.04818,0.15495 -0.0273,-0.0547 -0.0273,-0.12761 0,-0.1914 0.18229,-0.35547 0.19141,-0.17317 0.51953,-0.30989 0.33724,-0.13672 0.80208,-0.22787 0.46485,-0.0911 1.02084,-0.1276 0.20963,-1.90495 0.44661,-3.60026 0.23698,-1.69531 0.47396,-3.02604 0.0456,-0.23697 0.16406,-0.39192 0.12761,-0.15495 0.29167,-0.2461 0.16406,-0.0911 0.35547,-0.1276 0.1914,-0.0365 0.37369,-0.0365 0.30078,0 0.53776,0.0638 0.2461,0.0638 0.45573,0.1823 z m 4.08333,14.46483 q 0,-0.92058 0.19141,-1.86849 0.19141,-0.94792 0.5651,-1.83203 0.3737,-0.89323 0.92058,-1.66797 0.55599,-0.78385 1.27604,-1.36718 0.72005,-0.58334 1.60416,-0.92058 0.88412,-0.33724 1.92318,-0.33724 1.16666,0 2.05989,0.49219 0.90235,0.49219 1.51302,1.30339 0.61068,0.80208 0.92057,1.83202 0.31901,1.02995 0.31901,2.10547 0,0.92057 -0.1914,1.86849 -0.19141,0.94792 -0.57422,1.84114 -0.3737,0.88412 -0.92969,1.66797 -0.54687,0.77474 -1.26692,1.35807 -0.72005,0.58334 -1.60417,0.92058 -0.88411,0.33723 -1.92317,0.33723 -1.16667,0 -2.06901,-0.49218 -0.89323,-0.49219 -1.50391,-1.29427 -0.60156,-0.8112 -0.92057,-1.84115 -0.3099,-1.02994 -0.3099,-2.10546 z m 2.17839,-0.86589 q 0,0.61979 0.0911,1.25781 0.10026,0.63802 0.30079,1.23047 0.20052,0.59245 0.49218,1.11198 0.30078,0.51042 0.70182,0.89323 0.41016,0.38281 0.91146,0.60156 0.51042,0.21875 1.12109,0.21875 0.66537,0 1.16667,-0.28255 0.51042,-0.29167 0.875,-0.76563 0.3737,-0.47395 0.61068,-1.08463 0.24609,-0.61068 0.39192,-1.25781 0.14584,-0.65625 0.20052,-1.29427 0.0638,-0.63802 0.0638,-1.17578 0,-0.62891 -0.10026,-1.25781 -0.0911,-0.63802 -0.29167,-1.22136 -0.20052,-0.59244 -0.5013,-1.10286 -0.29167,-0.51953 -0.70182,-0.89323 -0.40105,-0.38281 -0.91146,-0.60156 -0.5013,-0.21875 -1.11198,-0.21875 -0.66536,0 -1.17578,0.28255 -0.5013,0.28255 -0.875,0.75651 -0.36458,0.47396 -0.61068,1.08463 -0.23698,0.61068 -0.38281,1.25782 -0.14583,0.64713 -0.20963,1.29427 -0.0547,0.63802 -0.0547,1.16666 z m 12.54165,6.34375 -0.14583,-0.009 q 0.0729,-0.86588 0.13672,-1.88672 0.0638,-1.02083 0.11849,-2.069 0.0547,-1.05729 0.0911,-2.08724 0.0456,-1.03906 0.0729,-1.93229 0.0365,-0.90234 0.0456,-1.61328 0.0182,-0.71094 0.0182,-1.12109 0,-0.33724 -0.0273,-0.58334 -0.0274,-0.24609 -0.12761,-0.41015 -0.0911,-0.16407 -0.27344,-0.23698 -0.18229,-0.082 -0.49218,-0.082 -0.15495,0 -0.31901,0.0182 -0.16406,0.0182 -0.36459,0.0547 -0.20052,0.0365 -0.45572,0.10026 -0.2461,0.0547 -0.57422,0.13672 l -0.13672,-0.65625 q 1.51302,-0.54687 2.45182,-0.76562 0.9388,-0.22787 1.26693,-0.22787 0.60156,0 0.85677,0.35547 0.26432,0.34636 0.26432,1.03906 0,0.0638 -0.0182,0.3737 -0.0182,0.3099 -0.0547,0.8112 -0.0273,0.49219 -0.0729,1.14844 -0.0456,0.65624 -0.10938,1.41275 -0.0547,0.7474 -0.1276,1.56771 -0.0729,0.8112 -0.15495,1.6224 l 0.0911,0.009 q 0.4375,-1.78646 0.98438,-3.32682 0.55599,-1.54948 1.23958,-2.6888 0.69271,-1.13932 1.51302,-1.78646 0.82943,-0.65625 1.8138,-0.65625 0.34635,0 0.64714,0.10938 0.30078,0.10937 0.51953,0.3099 0.21875,0.1914 0.34635,0.46484 0.1276,0.26432 0.1276,0.58333 0,0.41016 -0.18229,0.79297 -0.17317,0.3737 -0.55599,0.66536 h -0.0729 q -0.38282,-0.31901 -0.72917,-0.45573 -0.33724,-0.14583 -0.72005,-0.14583 -0.41016,0 -0.79297,0.15495 -0.38281,0.15495 -0.70182,0.44661 -0.51953,0.47396 -0.96615,1.25781 -0.44661,0.77474 -0.82031,1.72266 -0.36458,0.94792 -0.66536,1.99609 -0.29167,1.03906 -0.51042,2.03255 -0.20963,0.98438 -0.34635,1.85938 -0.12761,0.86588 -0.18229,1.45833 z m 18.51171,-3.0625 q 0.0547,0.0273 0.13672,0.082 0.0911,0.0456 0.16406,0.10938 0.0729,0.0547 0.1276,0.1276 0.0547,0.0638 0.0547,0.1276 0,0.0365 -0.0273,0.0729 -0.51042,0.71094 -1.10287,1.23958 -0.58333,0.51953 -1.22135,0.875 -0.62891,0.34636 -1.28516,0.51042 -0.65625,0.17317 -1.29427,0.17317 -1.09374,0 -2.0052,-0.44661 -0.91146,-0.44661 -1.56771,-1.22135 -0.65625,-0.77474 -1.02995,-1.8138 -0.36458,-1.04818 -0.36458,-2.24219 0,-0.97526 0.20964,-1.95052 0.21875,-0.97526 0.61979,-1.85937 0.41015,-0.88412 0.99349,-1.64063 0.58333,-0.76562 1.32161,-1.32161 0.74739,-0.5651 1.63151,-0.88411 0.89323,-0.31901 1.91406,-0.31901 0.67448,0 1.28515,0.18229 0.61068,0.18229 1.06641,0.52864 0.46484,0.33724 0.73828,0.83855 0.27344,0.5013 0.27344,1.13932 0,0.92968 -0.61068,1.62239 -0.60156,0.69271 -1.66797,1.17578 -1.0664,0.48307 -2.51562,0.78386 -1.4401,0.29166 -3.11718,0.4375 v 0.15494 q 0,1.16667 0.29166,2.13281 0.30078,0.96615 0.82031,1.65886 0.51954,0.68359 1.22136,1.0664 0.70182,0.38281 1.51302,0.38281 0.82031,0 1.67708,-0.40104 0.86588,-0.41015 1.75,-1.32161 z m -1.71354,-7.31901 q 0,-0.41927 -0.14584,-0.78385 -0.13671,-0.36458 -0.39192,-0.6289 -0.2461,-0.27344 -0.59245,-0.42839 -0.34635,-0.15495 -0.7474,-0.15495 -0.59244,0 -1.07552,0.20964 -0.48307,0.20963 -0.86588,0.57422 -0.38281,0.35546 -0.67448,0.83854 -0.29167,0.47396 -0.5013,1.01172 -0.20052,0.53776 -0.32813,1.10286 -0.1276,0.5651 -0.18229,1.10286 1.29427,-0.0911 2.31511,-0.30989 1.02994,-0.22787 1.73177,-0.57422 0.71093,-0.35547 1.08463,-0.83854 0.3737,-0.49219 0.3737,-1.1211 z"
       id="text1"
       transform="matrix(0.26458333,0,0,0.26458333,-17.143527,3.6788129)"
       aria-label="Haven Bookstore" /></g></svg>
